<svg xmlns="http://www.w3.org/2000/svg" xmlns:xlink="http://www.w3.org/1999/xlink" width="1366" zoomAndPan="magnify" viewBox="0 0 1024.5 415.499983" height="768" preserveAspectRatio="xMidYMid meet" version="1.0"><defs><clipPath id="6844c58d6f"><path d="M 0.367188 0 L 1023.632812 0 L 1023.632812 415 L 0.367188 415 Z M 0.367188 0 " clip-rule="nonzero"/></clipPath><clipPath id="51fd347f6b"><path d="M 206.0625 181 L 259 181 L 259 233.917969 L 206.0625 233.917969 Z M 206.0625 181 " clip-rule="nonzero"/></clipPath><clipPath id="2a65847178"><path d="M 266 180.734375 L 355 180.734375 L 355 233.917969 L 266 233.917969 Z M 266 180.734375 " clip-rule="nonzero"/></clipPath><clipPath id="5feadf53fb"><path d="M 361 181 L 406 181 L 406 233.917969 L 361 233.917969 Z M 361 181 " clip-rule="nonzero"/></clipPath><clipPath id="1a82f2c4e2"><path d="M 413 181 L 455 181 L 455 233.917969 L 413 233.917969 Z M 413 181 " clip-rule="nonzero"/></clipPath><clipPath id="88bd61e21b"><path d="M 514 180.734375 L 571 180.734375 L 571 233 L 514 233 Z M 514 180.734375 " clip-rule="nonzero"/></clipPath><clipPath id="3262033ce8"><path d="M 576 180.734375 L 618 180.734375 L 618 233 L 576 233 Z M 576 180.734375 " clip-rule="nonzero"/></clipPath><clipPath id="f24d47860e"><path d="M 625 180.734375 L 669 180.734375 L 669 233 L 625 233 Z M 625 180.734375 " clip-rule="nonzero"/></clipPath><clipPath id="226825a9c6"><path d="M 675 180.734375 L 719 180.734375 L 719 233 L 675 233 Z M 675 180.734375 " clip-rule="nonzero"/></clipPath><clipPath id="b4d58ec4f3"><path d="M 724 180.734375 L 765 180.734375 L 765 233 L 724 233 Z M 724 180.734375 " clip-rule="nonzero"/></clipPath><clipPath id="1bc4eb1d75"><path d="M 773 180.734375 L 818 180.734375 L 818 233 L 773 233 Z M 773 180.734375 " clip-rule="nonzero"/></clipPath><clipPath id="6ddcbbf624"><path d="M 463 219 L 478 219 L 478 233.917969 L 463 233.917969 Z M 463 219 " clip-rule="nonzero"/></clipPath><clipPath id="26916f79cb"><path d="M 486 219 L 502 219 L 502 233.917969 L 486 233.917969 Z M 486 219 " clip-rule="nonzero"/></clipPath></defs><g clip-path="url(#6844c58d6f)"><path fill="#ffffff" d="M 0.367188 0 L 1023.632812 0 L 1023.632812 415 L 0.367188 415 Z M 0.367188 0 " fill-opacity="1" fill-rule="nonzero"/><path fill="#000000" d="M 0.367188 0 L 1023.632812 0 L 1023.632812 415 L 0.367188 415 Z M 0.367188 0 " fill-opacity="1" fill-rule="nonzero"/></g><g clip-path="url(#51fd347f6b)"><path fill="#ffffff" d="M 206.589844 231.226562 L 206.589844 183.804688 C 206.589844 182.609375 207.570312 181.636719 208.773438 181.636719 L 220.785156 181.636719 C 221.53125 181.636719 222.183594 182.128906 222.390625 182.84375 L 230.191406 210.25 C 230.492188 211.25 230.796875 212.375 231.09375 213.621094 C 231.394531 214.871094 231.683594 216.066406 231.964844 217.21875 C 232.210938 218.246094 232.410156 219.160156 232.554688 219.941406 C 232.582031 220.101562 232.71875 220.210938 232.878906 220.210938 C 233.0625 220.210938 233.222656 220.078125 233.246094 219.894531 C 233.347656 219.203125 233.484375 218.390625 233.65625 217.4375 C 233.855469 216.339844 234.097656 215.152344 234.371094 213.878906 C 234.648438 212.605469 234.960938 211.367188 235.316406 210.171875 L 243.117188 182.835938 C 243.320312 182.128906 243.976562 181.636719 244.722656 181.636719 L 256.582031 181.636719 C 257.785156 181.636719 258.765625 182.609375 258.765625 183.804688 L 258.765625 230.929688 C 258.765625 232.085938 257.820312 233.015625 256.664062 233.015625 L 251.070312 233.015625 C 249.90625 233.015625 248.964844 232.078125 248.964844 230.929688 L 248.964844 207.027344 C 248.964844 204.730469 248.992188 202.433594 249.042969 200.132812 C 249.089844 197.835938 249.15625 195.867188 249.230469 194.214844 C 249.285156 192.96875 249.324219 192.105469 249.335938 191.636719 C 249.339844 191.453125 249.191406 191.296875 249 191.296875 C 248.847656 191.296875 248.714844 191.402344 248.675781 191.550781 C 248.550781 192.066406 248.320312 192.960938 247.980469 194.21875 C 247.578125 195.71875 247.152344 197.339844 246.699219 199.085938 C 246.242188 200.835938 245.84375 202.332031 245.488281 203.582031 L 237.527344 231.085938 C 237.199219 232.234375 236.144531 233.015625 234.945312 233.015625 L 229.941406 233.015625 C 228.742188 233.015625 227.6875 232.226562 227.359375 231.085938 L 219.398438 203.652344 C 219.097656 202.605469 218.757812 201.34375 218.378906 199.871094 C 218.003906 198.398438 217.625 196.890625 217.25 195.339844 C 216.902344 193.902344 216.582031 192.636719 216.296875 191.539062 C 216.257812 191.398438 216.125 191.292969 215.976562 191.292969 C 215.785156 191.292969 215.636719 191.445312 215.640625 191.636719 C 215.6875 192.910156 215.730469 194.410156 215.78125 196.125 C 215.832031 197.996094 215.882812 199.898438 215.929688 201.816406 C 215.980469 203.742188 216.007812 205.472656 216.007812 207.023438 L 216.007812 231.214844 C 216.007812 232.207031 215.199219 233.011719 214.199219 233.011719 L 208.398438 233.011719 C 207.402344 233.011719 206.589844 232.207031 206.589844 231.214844 Z M 206.589844 231.226562 " fill-opacity="1" fill-rule="nonzero"/></g><g clip-path="url(#2a65847178)"><path fill="#ffffff" d="M 292.46875 233.917969 C 287.089844 233.917969 282.441406 232.957031 278.519531 231.035156 C 274.597656 229.117188 271.597656 226.179688 269.507812 222.234375 C 267.421875 218.289062 266.382812 213.324219 266.382812 207.328125 C 266.382812 201.335938 267.425781 196.308594 269.507812 192.382812 C 271.59375 188.464844 274.597656 185.542969 278.519531 183.621094 C 282.441406 181.703125 287.089844 180.738281 292.46875 180.738281 L 328.8125 180.738281 C 334.238281 180.738281 338.898438 181.703125 342.796875 183.621094 C 346.691406 185.546875 349.683594 188.464844 351.765625 192.382812 C 353.847656 196.304688 354.894531 201.285156 354.894531 207.328125 C 354.894531 213.371094 353.847656 218.289062 351.765625 222.234375 C 349.679688 226.179688 346.6875 229.113281 342.796875 231.035156 C 338.898438 232.960938 334.238281 233.917969 328.8125 233.917969 Z M 335.707031 224.558594 C 337.691406 223.808594 339.363281 222.695312 340.722656 221.222656 C 342.082031 219.75 343.109375 217.929688 343.816406 215.753906 C 344.519531 213.582031 344.867188 211.074219 344.867188 208.226562 L 344.867188 206.582031 C 344.867188 203.683594 344.515625 201.136719 343.816406 198.9375 C 343.109375 196.742188 342.082031 194.90625 340.722656 193.429688 C 339.363281 191.957031 337.695312 190.847656 335.707031 190.097656 C 333.71875 189.347656 331.421875 188.976562 328.8125 188.976562 L 292.46875 188.976562 C 289.859375 188.976562 287.554688 189.347656 285.570312 190.097656 C 283.585938 190.847656 281.914062 191.957031 280.558594 193.429688 C 279.199219 194.90625 278.179688 196.742188 277.503906 198.9375 C 276.828125 201.136719 276.488281 203.683594 276.488281 206.582031 L 276.488281 208.226562 C 276.488281 211.074219 276.828125 213.582031 277.503906 215.753906 C 278.183594 217.929688 279.203125 219.75 280.558594 221.222656 C 281.914062 222.695312 283.585938 223.808594 285.570312 224.558594 C 287.554688 225.304688 333.726562 225.304688 335.714844 224.558594 Z M 335.707031 224.558594 " fill-opacity="1" fill-rule="nonzero"/></g><g clip-path="url(#5feadf53fb)"><path fill="#ffffff" d="M 361.007812 228.863281 L 361.007812 185.796875 C 361.007812 183.496094 362.878906 181.636719 365.191406 181.636719 L 388.226562 181.636719 C 392.046875 181.636719 395.214844 182.285156 397.726562 183.582031 C 400.238281 184.882812 402.128906 186.726562 403.382812 189.125 C 404.632812 191.519531 405.265625 194.34375 405.265625 197.589844 C 405.265625 200.835938 404.507812 203.894531 403 206.464844 C 402.074219 208.054688 400.875 209.398438 399.40625 210.5 C 397.765625 211.730469 397.222656 213.929688 398.160156 215.746094 L 403.949219 226.964844 C 405.378906 229.730469 403.355469 233.015625 400.222656 233.015625 L 398.964844 233.015625 C 397.371094 233.015625 395.917969 232.117188 395.214844 230.699219 L 388.015625 216.230469 C 387.3125 214.8125 385.859375 213.914062 384.265625 213.914062 L 374.992188 213.914062 C 372.679688 213.914062 370.804688 215.773438 370.804688 218.070312 L 370.804688 228.859375 C 370.804688 231.15625 368.933594 233.015625 366.621094 233.015625 L 365.1875 233.015625 C 362.875 233.015625 361 231.15625 361 228.859375 Z M 370.804688 201.597656 C 370.804688 203.894531 372.679688 205.757812 374.992188 205.757812 L 387.46875 205.757812 C 389.980469 205.757812 391.917969 205.03125 393.273438 203.582031 C 394.628906 202.132812 395.308594 200.140625 395.308594 197.589844 C 395.308594 195.941406 395.011719 194.558594 394.40625 193.429688 C 393.800781 192.308594 392.921875 191.445312 391.769531 190.847656 C 390.609375 190.246094 389.179688 189.949219 387.472656 189.949219 L 374.996094 189.949219 C 372.683594 189.949219 370.8125 191.808594 370.8125 194.105469 L 370.8125 201.597656 Z M 370.804688 201.597656 " fill-opacity="1" fill-rule="nonzero"/></g><g clip-path="url(#1a82f2c4e2)"><path fill="#ffffff" d="M 413.558594 228.863281 L 413.558594 185.796875 C 413.558594 183.496094 415.433594 181.636719 417.746094 181.636719 L 449.714844 181.636719 C 452.027344 181.636719 453.902344 183.496094 453.902344 185.796875 C 453.902344 188.09375 452.027344 189.953125 449.714844 189.953125 L 427.550781 189.953125 C 425.238281 189.953125 423.363281 191.8125 423.363281 194.109375 L 423.363281 198.457031 C 423.363281 200.753906 425.238281 202.617188 427.550781 202.617188 L 446.398438 202.617188 C 448.710938 202.617188 450.585938 204.476562 450.585938 206.773438 C 450.585938 209.070312 448.710938 210.933594 446.398438 210.933594 L 427.550781 210.933594 C 425.238281 210.933594 423.363281 212.792969 423.363281 215.089844 L 423.363281 220.558594 C 423.363281 222.855469 425.238281 224.714844 427.550781 224.714844 L 450.171875 224.714844 C 452.484375 224.714844 454.355469 226.578125 454.355469 228.875 C 454.355469 231.171875 452.484375 233.03125 450.171875 233.03125 L 417.75 233.03125 C 415.4375 233.03125 413.566406 231.171875 413.566406 228.875 Z M 413.558594 228.863281 " fill-opacity="1" fill-rule="nonzero"/></g><g clip-path="url(#88bd61e21b)"><path fill="#ffffff" d="M 514.710938 227.960938 L 514.710938 184.890625 C 514.710938 182.59375 516.585938 180.734375 518.898438 180.734375 L 553.65625 180.734375 C 557.476562 180.734375 560.628906 181.410156 563.121094 182.757812 C 565.605469 184.109375 567.480469 186.003906 568.738281 188.449219 C 569.992188 190.894531 570.621094 193.816406 570.621094 197.210938 C 570.621094 200.605469 569.96875 203.480469 568.664062 205.976562 C 567.355469 208.46875 565.40625 210.40625 562.820312 211.78125 C 560.234375 213.15625 557 213.839844 553.128906 213.839844 L 528.703125 213.839844 C 526.390625 213.839844 524.515625 215.699219 524.515625 217.996094 L 524.515625 227.960938 C 524.515625 230.257812 522.644531 232.117188 520.332031 232.117188 L 518.898438 232.117188 C 516.585938 232.117188 514.710938 230.257812 514.710938 227.960938 Z M 524.511719 201.371094 C 524.511719 203.667969 526.382812 205.527344 528.695312 205.527344 L 552.824219 205.527344 C 555.339844 205.527344 557.285156 204.792969 558.667969 203.320312 C 560.054688 201.847656 560.742188 199.8125 560.742188 197.21875 C 560.742188 195.46875 560.441406 193.996094 559.839844 192.796875 C 559.234375 191.59375 558.355469 190.671875 557.203125 190.023438 C 556.042969 189.371094 554.589844 189.050781 552.824219 189.050781 L 528.695312 189.050781 C 526.382812 189.050781 524.511719 190.910156 524.511719 193.207031 Z M 524.511719 201.371094 " fill-opacity="1" fill-rule="nonzero"/></g><g clip-path="url(#3262033ce8)"><path fill="#ffffff" d="M 576.257812 227.960938 L 576.257812 184.890625 C 576.257812 182.59375 578.128906 180.734375 580.441406 180.734375 L 612.414062 180.734375 C 614.726562 180.734375 616.597656 182.59375 616.597656 184.890625 C 616.597656 187.1875 614.726562 189.050781 612.414062 189.050781 L 590.246094 189.050781 C 587.933594 189.050781 586.058594 190.910156 586.058594 193.207031 L 586.058594 197.554688 C 586.058594 199.851562 587.933594 201.710938 590.246094 201.710938 L 609.097656 201.710938 C 611.410156 201.710938 613.28125 203.574219 613.28125 205.871094 C 613.28125 208.167969 611.410156 210.027344 609.097656 210.027344 L 590.246094 210.027344 C 587.933594 210.027344 586.058594 211.890625 586.058594 214.1875 L 586.058594 219.65625 C 586.058594 221.953125 587.933594 223.8125 590.246094 223.8125 L 612.867188 223.8125 C 615.179688 223.8125 617.050781 225.671875 617.050781 227.96875 C 617.050781 230.269531 615.179688 232.128906 612.867188 232.128906 L 580.445312 232.128906 C 578.132812 232.128906 576.261719 230.269531 576.261719 227.96875 Z M 576.257812 227.960938 " fill-opacity="1" fill-rule="nonzero"/></g><g clip-path="url(#f24d47860e)"><path fill="#ffffff" d="M 625.761719 227.960938 L 625.761719 184.890625 C 625.761719 182.59375 627.636719 180.734375 629.949219 180.734375 L 651.699219 180.734375 C 655.519531 180.734375 658.671875 181.410156 661.164062 182.757812 C 663.652344 184.109375 665.527344 186.003906 666.785156 188.449219 C 668.039062 190.894531 668.667969 193.816406 668.667969 197.210938 C 668.667969 200.605469 668.011719 203.480469 666.710938 205.976562 C 665.402344 208.46875 663.453125 210.40625 660.867188 211.78125 C 658.277344 213.15625 655.046875 213.839844 651.175781 213.839844 L 639.753906 213.839844 C 637.441406 213.839844 635.566406 215.699219 635.566406 217.996094 L 635.566406 227.960938 C 635.566406 230.257812 633.695312 232.117188 631.382812 232.117188 L 629.949219 232.117188 C 627.636719 232.117188 625.761719 230.257812 625.761719 227.960938 Z M 635.5625 201.371094 C 635.5625 203.667969 637.433594 205.527344 639.746094 205.527344 L 650.871094 205.527344 C 653.382812 205.527344 655.332031 204.792969 656.714844 203.320312 C 658.097656 201.847656 658.789062 199.8125 658.789062 197.21875 C 658.789062 195.46875 658.488281 193.996094 657.882812 192.796875 C 657.28125 191.59375 656.398438 190.671875 655.246094 190.023438 C 654.085938 189.371094 652.632812 189.050781 650.871094 189.050781 L 639.746094 189.050781 C 637.433594 189.050781 635.5625 190.910156 635.5625 193.207031 Z M 635.5625 201.371094 " fill-opacity="1" fill-rule="nonzero"/></g><g clip-path="url(#226825a9c6)"><path fill="#ffffff" d="M 675.125 227.960938 L 675.125 184.890625 C 675.125 182.59375 677 180.734375 679.3125 180.734375 L 701.0625 180.734375 C 704.882812 180.734375 708.035156 181.410156 710.527344 182.757812 C 713.015625 184.109375 714.886719 186.003906 716.144531 188.449219 C 717.398438 190.894531 718.027344 193.816406 718.027344 197.210938 C 718.027344 200.605469 717.375 203.480469 716.070312 205.976562 C 714.761719 208.46875 712.816406 210.40625 710.226562 211.78125 C 707.640625 213.15625 704.410156 213.839844 700.539062 213.839844 L 689.113281 213.839844 C 686.800781 213.839844 684.929688 215.699219 684.929688 217.996094 L 684.929688 227.960938 C 684.929688 230.257812 683.058594 232.117188 680.746094 232.117188 L 679.3125 232.117188 C 677 232.117188 675.125 230.257812 675.125 227.960938 Z M 684.925781 201.371094 C 684.925781 203.667969 686.796875 205.527344 689.109375 205.527344 L 700.234375 205.527344 C 702.746094 205.527344 704.695312 204.792969 706.078125 203.320312 C 707.460938 201.847656 708.148438 199.8125 708.148438 197.21875 C 708.148438 195.46875 707.851562 193.996094 707.246094 192.796875 C 706.640625 191.59375 705.761719 190.671875 704.609375 190.023438 C 703.449219 189.371094 701.996094 189.050781 700.234375 189.050781 L 689.109375 189.050781 C 686.796875 189.050781 684.925781 190.910156 684.925781 193.207031 Z M 684.925781 201.371094 " fill-opacity="1" fill-rule="nonzero"/></g><g clip-path="url(#b4d58ec4f3)"><path fill="#ffffff" d="M 724.132812 227.960938 L 724.132812 184.890625 C 724.132812 182.59375 726.003906 180.734375 728.316406 180.734375 L 760.289062 180.734375 C 762.601562 180.734375 764.472656 182.59375 764.472656 184.890625 C 764.472656 187.1875 762.601562 189.050781 760.289062 189.050781 L 738.121094 189.050781 C 735.808594 189.050781 733.9375 190.910156 733.9375 193.207031 L 733.9375 197.554688 C 733.9375 199.851562 735.808594 201.710938 738.121094 201.710938 L 756.972656 201.710938 C 759.285156 201.710938 761.15625 203.574219 761.15625 205.871094 C 761.15625 208.167969 759.285156 210.027344 756.972656 210.027344 L 738.121094 210.027344 C 735.808594 210.027344 733.9375 211.890625 733.9375 214.1875 L 733.9375 219.65625 C 733.9375 221.953125 735.808594 223.8125 738.121094 223.8125 L 760.742188 223.8125 C 763.054688 223.8125 764.929688 225.671875 764.929688 227.96875 C 764.929688 230.269531 763.054688 232.128906 760.742188 232.128906 L 728.324219 232.128906 C 726.011719 232.128906 724.136719 230.269531 724.136719 227.96875 Z M 724.132812 227.960938 " fill-opacity="1" fill-rule="nonzero"/></g><g clip-path="url(#1bc4eb1d75)"><path fill="#ffffff" d="M 773.289062 227.960938 L 773.289062 184.890625 C 773.289062 182.59375 775.164062 180.734375 777.476562 180.734375 L 800.511719 180.734375 C 804.332031 180.734375 807.5 181.382812 810.011719 182.679688 C 812.523438 183.980469 814.410156 185.824219 815.664062 188.222656 C 816.917969 190.617188 817.546875 193.441406 817.546875 196.6875 C 817.546875 199.929688 816.792969 202.992188 815.285156 205.5625 C 814.355469 207.152344 813.15625 208.496094 811.6875 209.597656 C 810.050781 210.828125 809.507812 213.027344 810.445312 214.839844 L 816.234375 226.058594 C 817.664062 228.828125 815.640625 232.113281 812.507812 232.113281 L 811.25 232.113281 C 809.65625 232.113281 808.203125 231.214844 807.5 229.796875 L 800.300781 215.328125 C 799.597656 213.910156 798.144531 213.011719 796.550781 213.011719 L 787.273438 213.011719 C 784.960938 213.011719 783.089844 214.871094 783.089844 217.167969 L 783.089844 227.957031 C 783.089844 230.253906 781.214844 232.113281 778.902344 232.113281 L 777.46875 232.113281 C 775.15625 232.113281 773.285156 230.253906 773.285156 227.957031 Z M 783.089844 200.695312 C 783.089844 202.992188 784.960938 204.851562 787.273438 204.851562 L 799.75 204.851562 C 802.265625 204.851562 804.203125 204.128906 805.554688 202.679688 C 806.914062 201.230469 807.59375 199.238281 807.59375 196.6875 C 807.59375 195.039062 807.292969 193.65625 806.6875 192.527344 C 806.085938 191.40625 805.207031 190.542969 804.050781 189.941406 C 802.894531 189.34375 801.464844 189.046875 799.757812 189.046875 L 787.28125 189.046875 C 784.96875 189.046875 783.09375 190.90625 783.09375 193.203125 L 783.09375 200.695312 Z M 783.089844 200.695312 " fill-opacity="1" fill-rule="nonzero"/></g><path fill="#ffffff" d="M 489.695312 206.953125 C 489.695312 207.425781 489.648438 207.898438 489.554688 208.363281 C 489.460938 208.828125 489.320312 209.28125 489.140625 209.722656 C 488.957031 210.160156 488.730469 210.578125 488.464844 210.972656 C 488.199219 211.367188 487.898438 211.730469 487.5625 212.066406 C 487.222656 212.402344 486.855469 212.703125 486.457031 212.96875 C 486.058594 213.230469 485.640625 213.453125 485.199219 213.636719 C 484.757812 213.816406 484.300781 213.953125 483.832031 214.046875 C 483.363281 214.140625 482.890625 214.1875 482.410156 214.1875 C 481.933594 214.1875 481.460938 214.140625 480.992188 214.046875 C 480.523438 213.953125 480.066406 213.816406 479.625 213.636719 C 479.183594 213.453125 478.761719 213.230469 478.367188 212.96875 C 477.96875 212.703125 477.601562 212.402344 477.261719 212.066406 C 476.925781 211.730469 476.621094 211.367188 476.355469 210.972656 C 476.089844 210.578125 475.867188 210.160156 475.683594 209.722656 C 475.5 209.28125 475.363281 208.828125 475.269531 208.363281 C 475.175781 207.898438 475.128906 207.425781 475.128906 206.953125 C 475.128906 206.476562 475.175781 206.007812 475.269531 205.539062 C 475.363281 205.074219 475.5 204.621094 475.683594 204.183594 C 475.867188 203.746094 476.089844 203.328125 476.355469 202.933594 C 476.621094 202.539062 476.925781 202.171875 477.261719 201.835938 C 477.601562 201.5 477.96875 201.199219 478.367188 200.9375 C 478.761719 200.671875 479.183594 200.449219 479.625 200.269531 C 480.066406 200.085938 480.523438 199.949219 480.992188 199.855469 C 481.460938 199.765625 481.933594 199.71875 482.410156 199.71875 C 482.890625 199.71875 483.363281 199.765625 483.832031 199.855469 C 484.300781 199.949219 484.757812 200.085938 485.199219 200.269531 C 485.640625 200.449219 486.058594 200.671875 486.457031 200.9375 C 486.855469 201.199219 487.222656 201.5 487.5625 201.835938 C 487.898438 202.171875 488.199219 202.539062 488.464844 202.933594 C 488.730469 203.328125 488.957031 203.746094 489.140625 204.183594 C 489.320312 204.621094 489.460938 205.074219 489.554688 205.539062 C 489.648438 206.007812 489.695312 206.476562 489.695312 206.953125 Z M 489.695312 206.953125 " fill-opacity="1" fill-rule="nonzero"/><g clip-path="url(#6ddcbbf624)"><path fill="#ffffff" d="M 477.839844 226.683594 C 477.839844 227.160156 477.792969 227.632812 477.703125 228.097656 C 477.609375 228.5625 477.46875 229.015625 477.285156 229.453125 C 477.105469 229.894531 476.878906 230.308594 476.613281 230.703125 C 476.347656 231.101562 476.046875 231.464844 475.707031 231.800781 C 475.371094 232.136719 475.003906 232.4375 474.605469 232.699219 C 474.207031 232.964844 473.789062 233.1875 473.347656 233.371094 C 472.902344 233.550781 472.449219 233.6875 471.980469 233.78125 C 471.511719 233.875 471.039062 233.917969 470.558594 233.917969 C 470.082031 233.917969 469.605469 233.875 469.136719 233.78125 C 468.667969 233.6875 468.214844 233.550781 467.773438 233.371094 C 467.332031 233.1875 466.910156 232.964844 466.511719 232.699219 C 466.117188 232.4375 465.746094 232.136719 465.410156 231.800781 C 465.070312 231.464844 464.769531 231.101562 464.503906 230.703125 C 464.238281 230.308594 464.015625 229.894531 463.832031 229.453125 C 463.648438 229.015625 463.511719 228.5625 463.417969 228.097656 C 463.324219 227.632812 463.277344 227.160156 463.277344 226.683594 C 463.277344 226.210938 463.324219 225.738281 463.417969 225.273438 C 463.511719 224.808594 463.648438 224.355469 463.832031 223.917969 C 464.015625 223.476562 464.238281 223.0625 464.503906 222.667969 C 464.769531 222.269531 465.070312 221.90625 465.410156 221.570312 C 465.746094 221.234375 466.117188 220.933594 466.511719 220.671875 C 466.910156 220.40625 467.332031 220.183594 467.773438 220 C 468.214844 219.820312 468.667969 219.683594 469.136719 219.589844 C 469.605469 219.496094 470.082031 219.449219 470.558594 219.449219 C 471.039062 219.449219 471.511719 219.496094 471.980469 219.589844 C 472.449219 219.683594 472.902344 219.820312 473.347656 220 C 473.789062 220.183594 474.207031 220.40625 474.605469 220.671875 C 475.003906 220.933594 475.371094 221.234375 475.707031 221.570312 C 476.046875 221.90625 476.347656 222.269531 476.613281 222.667969 C 476.878906 223.0625 477.105469 223.476562 477.285156 223.917969 C 477.46875 224.355469 477.609375 224.808594 477.703125 225.273438 C 477.792969 225.738281 477.839844 226.210938 477.839844 226.683594 Z M 477.839844 226.683594 " fill-opacity="1" fill-rule="nonzero"/></g><g clip-path="url(#26916f79cb)"><path fill="#ffffff" d="M 501.546875 226.683594 C 501.546875 227.160156 501.5 227.632812 501.40625 228.097656 C 501.3125 228.5625 501.175781 229.015625 500.992188 229.453125 C 500.808594 229.894531 500.585938 230.308594 500.320312 230.703125 C 500.054688 231.101562 499.75 231.464844 499.414062 231.800781 C 499.074219 232.136719 498.707031 232.4375 498.308594 232.699219 C 497.910156 232.964844 497.492188 233.1875 497.050781 233.371094 C 496.609375 233.550781 496.152344 233.6875 495.683594 233.78125 C 495.214844 233.875 494.742188 233.917969 494.265625 233.917969 C 493.785156 233.917969 493.3125 233.875 492.84375 233.78125 C 492.375 233.6875 491.917969 233.550781 491.476562 233.371094 C 491.035156 233.1875 490.617188 232.964844 490.21875 232.699219 C 489.820312 232.4375 489.453125 232.136719 489.113281 231.800781 C 488.777344 231.464844 488.472656 231.101562 488.207031 230.703125 C 487.941406 230.308594 487.71875 229.894531 487.535156 229.453125 C 487.351562 229.015625 487.214844 228.5625 487.121094 228.097656 C 487.027344 227.632812 486.980469 227.160156 486.980469 226.683594 C 486.980469 226.210938 487.027344 225.738281 487.121094 225.273438 C 487.214844 224.808594 487.351562 224.355469 487.535156 223.917969 C 487.71875 223.476562 487.941406 223.0625 488.207031 222.667969 C 488.472656 222.269531 488.777344 221.90625 489.113281 221.570312 C 489.453125 221.234375 489.820312 220.933594 490.21875 220.671875 C 490.617188 220.40625 491.035156 220.183594 491.476562 220 C 491.917969 219.820312 492.375 219.683594 492.84375 219.589844 C 493.3125 219.496094 493.785156 219.449219 494.265625 219.449219 C 494.742188 219.449219 495.214844 219.496094 495.683594 219.589844 C 496.152344 219.683594 496.609375 219.820312 497.050781 220 C 497.492188 220.183594 497.910156 220.40625 498.308594 220.671875 C 498.707031 220.933594 499.074219 221.234375 499.414062 221.570312 C 499.75 221.90625 500.054688 222.269531 500.320312 222.667969 C 500.585938 223.0625 500.808594 223.476562 500.992188 223.917969 C 501.175781 224.355469 501.3125 224.808594 501.40625 225.273438 C 501.5 225.738281 501.546875 226.210938 501.546875 226.683594 Z M 501.546875 226.683594 " fill-opacity="1" fill-rule="nonzero"/></g></svg>